<?xml version="1.0" standalone="no"?>
<!DOCTYPE svg PUBLIC "-//W3C//DTD SVG 20010904//EN"
 "http://www.w3.org/TR/2001/REC-SVG-20010904/DTD/svg10.dtd">
<svg version="1.0" xmlns="http://www.w3.org/2000/svg"
 width="500.000000pt" height="500.000000pt" viewBox="0 0 500.000000 500.000000"
 preserveAspectRatio="xMidYMid meet">

<g transform="translate(0.000000,500.000000) scale(0.100000,-0.100000)"
fill="#000000" stroke="none">
<path d="M1990 3900 l0 -640 23 -1 c101 -6 1167 -4 1165 2 -2 4 -104 78 -228
164 -124 86 -236 165 -250 175 -14 10 -63 45 -110 76 -100 68 -135 95 -138
109 -1 6 92 12 255 15 l258 5 -75 57 c-41 31 -102 78 -135 103 -33 25 -130 99
-215 163 -268 203 -413 314 -475 364 -33 26 -63 48 -67 48 -5 0 -8 -288 -8
-640z m286 202 c6 -4 14 -17 18 -29 7 -23 26 -32 26 -13 0 6 7 10 15 10 24 0
18 -45 -11 -74 -53 -52 -135 -53 -190 -1 -35 33 -46 75 -20 75 8 0 18 -4 21
-10 9 -15 25 -12 25 4 0 36 80 62 116 38z m-2 -467 c5 -13 10 -14 27 -5 17 10
21 8 26 -9 3 -12 14 -21 25 -21 15 0 18 -5 14 -16 -4 -10 1 -22 11 -30 17 -13
17 -15 -1 -29 -11 -8 -14 -15 -8 -15 7 0 12 -7 12 -15 0 -8 -7 -15 -15 -15 -9
0 -15 -9 -15 -21 0 -17 -5 -20 -25 -17 -17 4 -25 1 -25 -8 0 -17 -27 -18 -33
-1 -3 9 -8 9 -21 -3 -16 -13 -20 -12 -30 2 -8 11 -20 15 -34 11 -18 -4 -22 -1
-22 16 0 13 -6 21 -16 21 -12 0 -15 6 -10 25 4 14 2 25 -4 25 -5 0 -10 7 -10
15 0 8 7 15 16 15 11 0 14 6 9 20 -5 15 -2 20 13 20 11 0 23 7 26 16 4 11 13
14 30 10 16 -4 26 -1 30 9 7 19 22 19 30 0z"/>
<path d="M1674 3923 c-71 -87 -79 -95 -118 -115 -21 -11 -51 -33 -66 -50 -23
-25 -31 -28 -48 -19 -31 17 -77 13 -96 -8 -9 -10 -35 -45 -59 -78 -23 -34 -69
-83 -102 -109 -73 -59 -121 -111 -143 -156 -16 -31 -20 -33 -72 -33 -52 0 -55
-2 -65 -30 -6 -16 -21 -46 -33 -65 -12 -19 -22 -39 -22 -43 0 -5 -30 -47 -66
-94 -75 -96 -86 -121 -104 -216 -13 -72 -42 -120 -69 -115 -30 5 -40 -10 -29
-40 7 -19 8 -63 2 -134 -5 -59 -6 -158 -2 -220 6 -112 14 -139 65 -232 21 -39
8 -81 -27 -81 -36 -1 -34 -17 6 -76 20 -30 45 -72 55 -94 10 -22 30 -58 44
-80 13 -22 29 -50 35 -63 36 -82 138 -208 202 -249 43 -26 49 -54 18 -80 -11
-10 -20 -20 -20 -24 0 -3 23 -20 51 -38 28 -19 103 -77 168 -130 100 -82 130
-101 209 -131 94 -36 110 -53 77 -80 -8 -7 -15 -17 -15 -22 0 -6 -34 -66 -75
-134 -41 -68 -75 -131 -75 -139 0 -13 39 -15 304 -15 207 0 307 -3 311 -11 10
-15 -33 -58 -82 -81 -50 -23 -54 -44 -18 -78 14 -13 25 -29 25 -35 0 -18 63
-73 93 -80 33 -9 48 1 147 95 41 39 116 96 165 126 l91 54 159 0 159 0 90 -50
c50 -28 114 -71 141 -96 108 -98 153 -134 167 -134 23 0 98 58 107 83 5 12 18
31 30 41 31 28 26 50 -16 72 -43 21 -83 53 -83 66 0 4 128 9 284 10 l284 3
-80 145 c-98 179 -112 210 -95 215 158 49 223 80 308 151 39 32 77 64 83 70
22 21 147 104 157 104 16 0 10 25 -11 43 -31 26 -25 54 18 81 82 52 160 159
277 381 25 50 58 105 72 123 29 38 26 56 -7 57 -36 0 -48 42 -25 86 57 110 58
113 64 229 3 63 2 160 -3 215 -6 67 -5 109 2 128 15 38 6 58 -23 51 -33 -8
-60 33 -75 113 -18 94 -30 119 -105 218 -36 48 -65 91 -65 97 0 5 -10 24 -22
41 -13 17 -28 45 -34 61 -10 29 -14 31 -65 31 -52 0 -54 1 -75 40 -23 45 -70
95 -146 155 -28 22 -68 64 -89 93 -73 102 -79 107 -110 107 -17 0 -40 -5 -51
-11 -17 -9 -25 -6 -48 19 -15 17 -45 39 -67 50 -22 12 -53 37 -69 57 -64 82
-87 105 -103 105 -32 0 -70 -131 -78 -271 -4 -68 -2 -84 22 -138 15 -33 34
-66 41 -72 20 -16 17 -27 -7 -31 -12 -2 -28 -13 -36 -25 -14 -21 -13 -24 14
-50 16 -16 55 -43 87 -62 31 -19 63 -42 69 -51 7 -10 48 -55 92 -102 44 -47
91 -105 104 -129 40 -74 71 -138 71 -149 0 -15 49 -110 71 -139 21 -26 21 -27
17 -251 -3 -194 -2 -230 7 -262 6 -24 4 -28 -26 -36 -31 -7 -35 -13 -50 -68
-10 -40 -31 -81 -60 -120 -57 -75 -101 -174 -108 -244 -5 -46 -10 -56 -27 -58
-11 -2 -28 6 -39 18 -24 27 -39 25 -59 -5 -9 -14 -21 -25 -27 -25 -5 0 -39 30
-74 67 -36 36 -65 63 -65 60 0 -10 -144 142 -156 165 -6 12 -13 17 -16 12 -3
-5 -3 -3 -1 4 2 8 -6 25 -17 39 -11 14 -17 30 -14 35 4 7 -8 8 -32 4 -35 -6
-42 -4 -60 21 -11 15 -32 51 -46 78 -14 28 -39 77 -57 108 -17 31 -45 83 -62
115 -18 31 -42 76 -55 100 -13 23 -24 51 -24 61 0 22 51 45 200 91 57 18 131
45 165 60 62 28 122 77 117 93 -2 5 4 7 13 4 9 -4 15 -1 15 7 0 8 7 17 16 20
9 3 12 11 8 18 -5 8 0 7 11 -2 15 -12 17 -12 14 -1 -3 8 16 36 42 62 26 27 51
58 54 70 4 12 16 30 26 40 10 10 19 32 19 48 0 16 2 35 5 43 3 7 0 22 -8 31
-11 16 -12 13 -9 -22 6 -58 -30 -121 -120 -213 -62 -62 -191 -158 -213 -158
-2 0 -28 -11 -57 -24 -29 -13 -80 -33 -113 -46 -33 -12 -69 -26 -80 -31 -11
-5 -44 -17 -73 -28 l-52 -19 -26 44 c-14 24 -43 76 -63 116 -21 40 -43 73 -49
73 -10 0 -146 -220 -222 -360 -66 -121 -139 -246 -149 -255 -3 -3 -19 -31 -36
-63 -29 -57 -31 -58 -63 -52 -20 4 -32 2 -28 -3 3 -5 -4 -20 -15 -33 -59 -69
-126 -143 -141 -157 -10 -9 -18 -22 -18 -29 0 -7 -7 -13 -15 -13 -8 0 -23 -12
-32 -27 -32 -49 -81 -94 -87 -81 -4 7 -4 3 -2 -9 2 -12 1 -22 -3 -21 -19 2
-24 -3 -11 -12 13 -8 12 -10 -2 -10 -10 0 -18 -4 -18 -10 0 -5 5 -10 12 -10 6
0 9 -2 6 -5 -3 -3 -30 6 -61 19 -48 22 -57 23 -67 11 -33 -39 -70 -2 -70 70 0
46 -55 170 -100 224 -38 47 -54 81 -65 138 -5 25 -14 34 -42 44 -31 10 -34 14
-27 38 9 33 5 246 -5 287 -6 20 -4 50 5 83 7 29 11 65 8 81 -5 22 2 43 30 87
19 32 44 83 55 114 35 102 104 206 214 319 60 63 122 117 148 130 85 43 125
104 83 128 -15 8 -15 17 0 102 20 114 20 165 2 251 -17 80 -46 143 -67 147 -9
2 -32 -17 -55 -45z m59 -60 c2 -21 10 -65 17 -98 18 -87 8 -165 -26 -213 -38
-52 -91 -82 -149 -82 -79 0 -82 5 -81 117 1 92 3 100 30 136 15 20 33 37 38
37 21 0 96 61 122 99 16 23 32 41 36 41 4 0 10 -17 13 -37z m1680 -92 c76 -43
92 -79 88 -196 -1 -56 -7 -92 -14 -97 -21 -13 -98 -9 -133 8 -18 9 -50 36 -70
60 -46 57 -54 125 -30 240 27 125 23 120 66 65 21 -27 63 -63 93 -80z m-1983
-130 c11 -43 -4 -131 -33 -187 -16 -32 -75 -94 -89 -94 -11 0 -10 -28 2 -35 5
-3 29 7 52 23 24 16 59 36 78 45 46 21 244 34 255 17 8 -13 -22 -50 -41 -50
-7 0 -19 -6 -26 -13 -7 -7 -37 -30 -65 -50 -29 -21 -63 -53 -75 -70 -43 -61
-69 -76 -125 -77 -28 0 -55 -4 -58 -10 -3 -5 -21 -10 -39 -10 -18 0 -41 -7
-52 -15 -40 -31 -84 -13 -84 35 0 14 -12 55 -26 91 -43 108 -27 142 128 284
54 50 113 105 130 123 41 42 55 40 68 -7z m2224 -8 c27 -27 79 -76 114 -111
35 -34 72 -68 81 -75 22 -15 66 -84 74 -115 3 -15 -4 -41 -19 -71 -14 -26 -28
-69 -32 -96 -9 -62 -28 -75 -77 -52 -20 9 -49 17 -65 17 -16 0 -32 5 -35 10
-3 6 -30 10 -59 10 -52 0 -54 1 -107 60 -30 33 -74 75 -99 92 -25 18 -51 38
-58 45 -7 7 -19 13 -26 13 -7 0 -21 9 -30 19 -17 18 -17 20 2 30 26 14 199 3
242 -16 19 -9 49 -25 65 -37 81 -60 93 -34 21 46 -51 56 -60 74 -69 143 -1 11
-6 26 -11 33 -13 22 11 102 32 102 3 0 28 -21 56 -47z m-2649 -369 c65 -70 74
-225 18 -327 -14 -26 -14 -31 0 -44 13 -13 21 -7 68 50 30 35 74 78 99 94 43
28 155 61 168 49 3 -3 -4 -25 -15 -49 -12 -23 -26 -60 -33 -82 -32 -102 -45
-121 -187 -262 -79 -79 -143 -147 -143 -153 0 -5 -8 -10 -18 -10 -13 0 -28 19
-47 61 -28 57 -73 107 -155 169 -30 23 -33 30 -32 73 3 57 71 197 151 306 27
38 53 82 57 98 8 32 22 53 36 53 5 0 20 -12 33 -26z m3061 -31 c14 -32 41 -77
60 -100 19 -23 53 -77 76 -120 22 -43 47 -89 54 -103 8 -14 14 -48 14 -77 0
-52 -1 -53 -52 -92 -76 -56 -113 -99 -138 -158 -16 -37 -28 -53 -41 -53 -11 0
-19 5 -19 11 0 5 -62 72 -138 147 -141 140 -160 165 -192 262 -10 30 -26 72
-36 92 -10 21 -15 41 -11 44 7 8 101 -13 142 -31 35 -16 73 -51 134 -124 39
-47 45 -51 59 -37 13 13 13 17 0 38 -56 88 -44 272 21 337 12 12 25 21 31 21
5 0 21 -26 36 -57z m-3341 -561 c95 -88 175 -235 175 -321 0 -27 5 -53 10 -56
6 -3 10 -15 10 -25 0 -10 5 -22 12 -26 16 -10 37 23 31 47 -6 22 19 111 46
167 21 44 117 145 133 140 6 -2 15 -15 19 -29 13 -46 32 -226 26 -255 -13 -67
-39 -143 -72 -209 -18 -38 -39 -82 -44 -97 -13 -36 -37 -35 -76 1 -16 16 -57
38 -90 49 -33 12 -76 26 -95 33 -84 29 -102 52 -129 165 -16 67 -29 284 -18
291 5 3 6 36 3 73 -7 66 -4 75 24 79 3 1 19 -11 35 -27z m3602 20 c9 -6 11
-59 9 -202 -3 -180 -6 -201 -31 -277 -27 -83 -44 -104 -95 -115 -71 -16 -190
-70 -214 -97 -27 -29 -54 -27 -67 7 -5 15 -25 59 -44 97 -61 125 -70 161 -69
270 1 102 18 210 35 220 13 9 70 -37 104 -85 17 -23 35 -47 40 -53 15 -18 45
-142 39 -163 -3 -11 2 -28 10 -39 25 -34 46 -1 53 86 3 41 12 83 19 94 8 11
14 25 14 32 0 30 74 135 145 204 32 32 34 32 52 21z m-1768 -177 c97 -184 262
-502 466 -900 169 -329 256 -498 291 -561 18 -34 31 -64 27 -67 -9 -10 -1737
3 -1746 13 -8 7 13 47 115 225 16 28 34 61 41 75 6 14 14 27 17 30 3 3 52 88
109 190 57 102 125 221 151 265 26 44 67 116 90 160 24 44 54 97 67 117 12 21
23 40 23 44 0 3 9 18 19 33 11 14 39 63 63 107 111 206 204 363 211 361 5 -1
30 -43 56 -92z m-1289 -421 c6 -15 20 -39 31 -55 43 -60 118 -227 128 -284 6
-33 12 -103 13 -155 l3 -95 -32 1 c-18 0 -108 1 -199 2 l-166 2 -73 71 c-41
39 -81 85 -90 103 -9 17 -31 58 -50 91 -18 33 -45 84 -59 114 -15 30 -33 59
-41 65 -9 6 -18 28 -22 49 -6 37 -5 37 28 37 56 0 98 -17 183 -73 79 -53 166
-135 166 -157 0 -6 12 -27 26 -46 47 -61 74 -33 33 35 -28 46 -30 129 -4 208
11 35 23 63 28 63 4 0 7 6 7 13 0 21 22 37 52 37 22 0 31 -6 38 -26z m2548 -1
c23 -35 49 -105 57 -158 4 -28 -1 -58 -15 -100 -34 -95 -35 -105 -13 -105 12
0 29 19 51 58 28 51 94 132 107 132 3 0 35 21 72 47 77 54 122 72 177 73 l39
0 -6 -37 c-4 -21 -13 -42 -20 -48 -8 -5 -32 -46 -54 -90 -22 -44 -50 -96 -61
-115 -12 -19 -30 -51 -41 -70 -11 -19 -50 -65 -88 -102 l-68 -66 -197 -4
c-108 -2 -199 -1 -201 2 -11 11 13 257 28 300 25 67 81 181 115 231 16 24 30
49 30 56 0 13 16 21 47 22 13 1 29 -10 41 -26z m-828 -70 c0 -13 -30 -19 -30
-5 0 4 -3 18 -7 32 -6 25 -6 25 15 6 12 -11 22 -25 22 -33z m-1331 -413 c14
-14 39 -35 55 -46 l28 -20 -40 -80 c-68 -131 -62 -128 -122 -65 -54 57 -57 65
-64 156 -5 63 10 106 41 124 18 10 21 8 102 -69z m1813 36 c17 -31 10 -165 -9
-196 -9 -14 -38 -47 -64 -74 -48 -48 -53 -66 -22 -66 16 0 79 43 98 67 6 7 44
24 85 39 69 25 85 27 209 26 176 -3 184 -8 99 -66 -29 -20 -80 -61 -113 -91
-58 -53 -137 -98 -220 -125 -22 -7 -49 -19 -60 -26 -18 -12 -23 -11 -35 4 -15
18 -89 154 -163 300 l-42 84 40 31 c22 17 59 51 82 74 70 69 87 72 115 19z
m-1716 -23 c-7 -7 -26 7 -26 19 0 6 6 6 15 -2 9 -7 13 -15 11 -17z m-313 -210
c38 -14 82 -38 100 -54 17 -16 34 -29 37 -29 3 0 11 -4 19 -9 11 -7 7 -22 -24
-77 -56 -102 -59 -105 -103 -89 -88 31 -171 79 -227 130 -33 30 -84 71 -113
91 -29 20 -51 41 -49 47 4 14 163 26 242 20 28 -3 81 -16 118 -30z m750 -475
c12 -7 25 -16 28 -21 3 -4 76 -7 162 -8 92 0 157 -4 157 -10 0 -5 -7 -9 -15
-9 -17 0 -20 -16 -5 -25 16 -10 11 -33 -12 -55 -26 -24 -38 -26 -38 -5 0 8 5
15 11 15 6 0 9 8 7 18 -6 31 -33 19 -36 -17 -3 -33 -4 -33 -43 -28 -22 3 -46
11 -54 17 -20 17 -19 57 3 69 14 8 9 10 -22 11 -37 0 -38 -1 -23 -18 21 -23
12 -56 -18 -70 -24 -11 -45 0 -25 13 18 11 12 47 -7 43 -12 -2 -19 -14 -21
-36 -3 -32 -4 -32 -40 -26 -70 11 -72 13 -72 55 0 28 -4 39 -15 39 -11 0 -15
-12 -15 -50 0 -38 -4 -50 -15 -50 -11 0 -15 12 -15 50 0 38 -4 50 -15 50 -11
0 -15 -12 -15 -50 0 -38 -4 -50 -15 -50 -11 0 -15 12 -15 50 0 43 -3 50 -20
50 -11 0 -20 -4 -20 -10 0 -5 -11 -10 -24 -10 -28 0 -51 -24 -42 -45 3 -9 18
-15 41 -15 19 0 35 -4 35 -10 0 -5 -7 -10 -15 -10 -18 0 -20 -17 -2 -23 6 -2
9 -8 5 -12 -4 -4 -14 -2 -22 4 -11 9 -20 10 -35 1 -22 -11 -30 3 -10 16 8 5 6
10 -5 16 -8 5 -20 18 -26 29 -9 16 -6 24 16 44 26 24 26 25 5 25 -11 0 -21 5
-21 10 0 7 34 10 92 9 84 -1 93 0 106 20 11 16 25 21 58 21 25 0 54 -6 67 -12z
m856 -10 c20 -12 38 -23 40 -24 1 -2 -1 -9 -5 -16 -4 -7 -8 -31 -9 -53 0 -30
-4 -41 -17 -43 -15 -3 -18 4 -18 47 0 48 -2 51 -25 51 -17 0 -25 -6 -25 -16 0
-9 -8 -22 -17 -29 -15 -11 -15 -15 -4 -29 7 -9 20 -16 27 -16 8 0 14 -4 14
-10 0 -22 -47 -7 -82 25 -42 39 -47 49 -20 41 22 -7 47 8 38 23 -9 14 -63 15
-71 1 -3 -5 -16 -10 -28 -11 -20 -1 -19 -2 6 -12 31 -12 35 -31 10 -46 -10 -6
-12 -11 -5 -11 6 0 12 -4 12 -10 0 -15 -96 -12 -109 4 -13 16 -12 65 3 85 8
10 6 12 -9 9 -19 -3 -22 -10 -24 -69 -1 -21 -7 -28 -28 -31 -16 -3 -37 -9 -47
-13 -15 -7 -18 -5 -13 8 3 8 -1 21 -9 27 -8 7 -14 29 -14 50 0 48 6 50 188 50
129 0 144 2 162 20 25 25 34 25 79 -2z m-858 -239 c-19 -17 -50 -41 -70 -54
-20 -12 -62 -46 -94 -74 -72 -64 -110 -65 -159 -7 -29 35 -22 54 35 87 28 17
67 41 86 55 31 22 44 24 135 24 l100 0 -33 -31z m880 -31 c93 -62 99 -81 41
-122 -51 -35 -75 -33 -125 12 -23 21 -77 64 -119 96 -43 32 -78 60 -78 62 0 2
45 4 101 4 l101 0 79 -52z"/>
<path d="M2470 2493 c-49 -87 -61 -108 -130 -233 -35 -63 -84 -151 -110 -195
-84 -144 -160 -281 -160 -288 0 -4 -17 -33 -39 -65 -21 -31 -69 -115 -107
-187 -37 -71 -90 -168 -117 -215 -73 -126 -147 -266 -147 -279 0 -8 210 -11
808 -11 445 0 811 3 815 6 3 3 -5 25 -17 47 -22 40 -81 154 -309 597 -52 102
-128 248 -169 325 -41 77 -104 202 -141 277 -37 75 -84 169 -106 208 l-38 71
-33 -58z m105 -304 c72 -20 161 -101 148 -135 -7 -20 -30 -17 -64 7 -29 20
-70 23 -69 4 0 -5 13 -14 30 -18 41 -10 38 -22 -10 -41 -69 -28 -79 -24 -77
34 1 66 -17 87 -53 60 -19 -15 -22 -22 -13 -31 9 -9 9 -16 0 -31 -10 -15 -9
-20 3 -28 8 -5 11 -12 7 -16 -9 -9 -117 24 -117 35 0 4 11 13 25 19 14 6 25
16 25 22 0 14 -31 12 -60 -5 -48 -28 -89 -11 -74 30 7 18 106 84 142 95 40 12
111 11 157 -1z m95 -186 c0 -21 -71 -53 -127 -59 -61 -7 -150 8 -185 30 -35
21 -17 24 43 5 33 -10 79 -19 102 -19 45 0 147 29 147 42 0 4 5 8 10 8 6 0 10
-3 10 -7z m-400 -48 c17 -21 3 -89 -30 -150 -66 -121 -91 -175 -88 -192 5 -26
163 -41 216 -20 27 10 46 11 70 4 38 -12 39 -17 8 -54 -21 -25 -22 -31 -10
-48 17 -23 18 -90 4 -239 -10 -105 -10 -110 12 -142 13 -19 25 -34 28 -34 3 0
14 16 24 35 20 36 20 28 -3 235 -11 92 -7 128 16 147 13 10 13 15 -6 39 -30
38 -26 52 17 63 44 12 98 2 144 -27 30 -19 34 -20 60 -4 24 14 30 14 53 2 15
-8 31 -22 35 -31 12 -22 15 -458 4 -469 -20 -18 -71 -21 -88 -5 -13 13 -20 14
-30 6 -9 -8 -83 -11 -237 -9 l-224 3 -3 208 -2 207 -141 0 c-111 0 -141 3
-145 14 -7 19 37 97 155 276 20 30 45 72 56 93 23 44 73 107 85 107 4 0 13 -7
20 -15z m135 -26 c70 -25 128 -22 218 9 52 19 57 19 57 3 0 -47 -110 -121
-180 -121 -81 0 -190 75 -190 130 0 13 1 13 95 -21z m-60 -109 c25 -28 77 -40
170 -40 64 0 87 4 115 21 19 12 38 26 42 32 14 23 19 -21 8 -64 -16 -57 -81
-122 -139 -137 -109 -27 -231 67 -231 178 0 35 10 38 35 10z"/>
<path d="M2641 1375 c-1 -17 -3 -18 -11 -5 -8 12 -12 13 -19 2 -4 -8 -19 -12
-32 -10 -23 3 -24 0 -27 -62 -3 -73 8 -90 64 -90 52 0 64 20 63 108 -1 42 -3
69 -6 60 -2 -10 -8 -18 -13 -18 -5 0 -11 8 -13 18 -4 14 -5 14 -6 -3z m-33
-42 c-2 -10 -12 -18 -23 -18 -11 0 -21 8 -23 18 -3 13 3 17 23 17 20 0 26 -4
23 -17z m60 0 c-2 -10 -12 -18 -23 -18 -11 0 -21 8 -23 18 -3 13 3 17 23 17
20 0 26 -4 23 -17z m-68 -64 c0 22 18 11 22 -14 6 -31 -7 -42 -21 -18 -6 10
-11 12 -11 6 0 -26 -20 -12 -20 13 0 22 2 25 15 14 10 -9 15 -9 15 -1z m60
-14 c0 -8 -4 -17 -10 -20 -6 -4 -10 5 -10 20 0 15 4 24 10 20 6 -3 10 -12 10
-20z"/>
<path d="M2280 1349 c0 -5 4 -8 9 -5 12 8 41 -3 41 -15 0 -17 -32 -22 -41 -8
-6 9 -9 -4 -9 -37 0 -59 15 -77 60 -77 50 0 70 27 70 95 l0 58 -65 0 c-39 0
-65 -4 -65 -11z m110 -16 c0 -8 -7 -16 -16 -20 -17 -6 -39 10 -31 24 9 14 47
10 47 -4z m-40 -85 c0 -26 -3 -29 -22 -23 -48 15 -51 49 -4 51 23 2 26 -2 26
-28z m33 16 c8 -8 -3 -34 -14 -34 -5 0 -9 9 -9 20 0 19 11 26 23 14z"/>
<path d="M2100 920 c0 -5 19 -10 43 -10 31 0 38 3 27 10 -20 13 -70 13 -70 0z"/>
<path d="M2170 856 c0 -25 4 -36 15 -36 9 0 15 9 15 25 0 14 0 28 1 33 0 4 -7
8 -15 10 -12 3 -16 -5 -16 -32z"/>
<path d="M2385 850 c-7 -12 2 -30 16 -30 5 0 9 9 9 20 0 21 -15 27 -25 10z"/>
<path d="M2662 858 c4 -46 28 -49 28 -4 0 26 -4 36 -16 36 -11 0 -14 -8 -12
-32z"/>
<path d="M2793 824 c-6 -16 11 -34 33 -34 6 0 12 11 12 25 0 29 -34 36 -45 9z"/>
<path d="M3160 3184 c-73 -16 -272 -76 -267 -80 3 -3 53 7 252 50 39 8 99 18
135 22 46 5 59 9 45 15 -30 11 -92 9 -165 -7z"/>
<path d="M1699 3164 c-7 -8 -30 -24 -51 -35 -41 -21 -74 -75 -83 -138 l-5 -36
15 39 c8 21 20 45 26 52 6 7 7 19 3 26 -4 7 -3 10 1 5 5 -4 25 8 45 28 19 19
53 43 75 54 37 18 38 20 14 21 -15 0 -32 -7 -40 -16z"/>
<path d="M2030 2958 c118 -119 217 -215 219 -212 5 5 -191 201 -354 354 -44
41 17 -23 135 -142z"/>
<path d="M2845 3090 c-13 -6 -15 -9 -5 -9 8 0 22 4 30 9 18 12 2 12 -25 0z"/>
<path d="M1575 2888 c4 -13 21 -36 38 -52 60 -53 149 -131 179 -156 16 -14 44
-39 61 -55 18 -17 52 -47 77 -67 25 -20 65 -55 90 -77 29 -27 48 -37 54 -31 7
7 -2 20 -24 39 -40 33 -71 61 -155 140 -33 31 -88 81 -122 110 -35 30 -91 80
-125 112 -68 64 -83 71 -73 37z"/>
</g>
</svg>
